<svg width="446" height="87" viewBox="0 0 446 87" fill="none" xmlns="http://www.w3.org/2000/svg">
<path d="M67.9023 38.3574V39.2852C67.8372 42.0195 67.5443 44.8516 67.0234 47.7812C66.5352 50.7109 65.8353 53.6406 64.9238 56.5703C64.0124 59.5 62.9219 62.3971 61.6523 65.2617C60.3828 68.1263 58.9505 70.8607 57.3555 73.4648C55.793 76.1016 54.1003 78.5592 52.2773 80.8379C50.4544 83.1491 48.5339 85.1836 46.5156 86.9414L39.2402 82.7422C40.3796 80.8216 41.4049 78.722 42.3164 76.4434C43.2604 74.1973 44.1068 71.8372 44.8555 69.3633C45.6042 66.8893 46.2389 64.3503 46.7598 61.7461C47.3132 59.1419 47.7689 56.554 48.127 53.9824C48.485 51.4108 48.7454 48.888 48.9082 46.4141C49.1035 43.9076 49.2012 41.5312 49.2012 39.2852C49.2012 37.5273 49.1849 35.5417 49.1523 33.3281C49.1523 31.082 49.0221 28.8034 48.7617 26.4922C48.5339 24.181 48.1432 21.9349 47.5898 19.7539C47.0365 17.5404 46.2064 15.571 45.0996 13.8457C44.0254 12.1204 42.6257 10.737 40.9004 9.69531C39.2077 8.65365 37.0918 8.13281 34.5527 8.13281C32.3066 8.13281 30.3698 8.52344 28.7422 9.30469C27.1471 10.0534 25.7799 11.0788 24.6406 12.3809C23.5339 13.6504 22.6387 15.1315 21.9551 16.8242C21.304 18.5169 20.7832 20.3073 20.3926 22.1953C20.0345 24.0508 19.7904 25.9388 19.6602 27.8594C19.5625 29.7474 19.5137 31.5378 19.5137 33.2305V46.8535H40.5586V54.9102H19.5137V72H0.128906V36.2578C0.128906 31.1471 0.942708 26.3945 2.57031 22C4.19792 17.6055 6.49284 13.7969 9.45508 10.5742C12.4499 7.31901 16.0306 4.77995 20.1973 2.95703C24.3965 1.10156 29.0677 0.173828 34.2109 0.173828C37.694 0.173828 40.9492 0.678385 43.9766 1.6875C47.0365 2.66406 49.8197 4.03125 52.3262 5.78906C54.8327 7.51432 57.0625 9.58138 59.0156 11.9902C61.0013 14.3665 62.6452 16.9707 63.9473 19.8027C65.2819 22.6348 66.291 25.6296 66.9746 28.7871C67.6582 31.9447 67.9674 35.1348 67.9023 38.3574Z" fill="#8F788B"/>
<path d="M144.416 19.1191L136.066 22.6348C135.415 20.5189 134.536 18.582 133.43 16.8242C132.355 15.0664 131.053 13.569 129.523 12.332C128.026 11.0625 126.317 10.0859 124.396 9.40234C122.476 8.6862 120.376 8.32812 118.098 8.32812C115.656 8.32812 113.41 8.73503 111.359 9.54883C109.341 10.3301 107.518 11.4206 105.891 12.8203C104.296 14.2201 102.896 15.8477 101.691 17.7031C100.487 19.5586 99.4779 21.5443 98.6641 23.6602C97.8503 25.7435 97.248 27.9082 96.8574 30.1543C96.4668 32.4004 96.2715 34.5977 96.2715 36.7461C96.2715 40.1641 96.6621 43.5658 97.4434 46.9512C98.2572 50.3366 99.5267 53.3802 101.252 56.082C103.01 58.7839 105.272 60.9811 108.039 62.6738C110.806 64.334 114.159 65.1641 118.098 65.1641C120.181 65.1641 122.15 64.8223 124.006 64.1387C125.861 63.4225 127.538 62.4622 129.035 61.2578C130.565 60.0208 131.9 58.5723 133.039 56.9121C134.178 55.252 135.09 53.4616 135.773 51.541L144.221 54.9102C142.984 58.0026 141.291 60.7207 139.143 63.0645C136.994 65.3757 134.536 67.2962 131.77 68.8262C129.035 70.3561 126.089 71.4954 122.932 72.2441C119.807 73.0254 116.649 73.416 113.459 73.416C110.008 73.416 106.688 72.9928 103.498 72.1465C100.34 71.3001 97.3945 70.0957 94.6602 68.5332C91.9258 66.9707 89.4355 65.0827 87.1895 62.8691C84.9759 60.6556 83.0716 58.1979 81.4766 55.4961C79.9141 52.7943 78.6934 49.8646 77.8145 46.707C76.9681 43.5169 76.5449 40.1966 76.5449 36.7461C76.5449 33.2956 76.9681 29.9915 77.8145 26.834C78.6934 23.6439 79.9141 20.6979 81.4766 17.9961C83.0716 15.2617 84.9759 12.7878 87.1895 10.5742C89.4355 8.36068 91.9258 6.47266 94.6602 4.91016C97.3945 3.34766 100.34 2.14323 103.498 1.29688C106.688 0.450521 110.008 0.0273438 113.459 0.0273438C116.779 0.0273438 120.018 0.417969 123.176 1.19922C126.366 1.98047 129.328 3.16862 132.062 4.76367C134.797 6.32617 137.222 8.31185 139.338 10.7207C141.486 13.097 143.179 15.8965 144.416 19.1191Z" fill="#B38C57"/>
<path d="M229.133 36.7461C229.133 42.4102 228.156 47.5208 226.203 52.0781C224.25 56.6029 221.548 60.444 218.098 63.6016C214.647 66.7591 210.562 69.1842 205.842 70.877C201.122 72.5697 196.011 73.416 190.51 73.416C185.008 73.416 179.898 72.5697 175.178 70.877C170.458 69.1842 166.372 66.7591 162.922 63.6016C159.471 60.444 156.77 56.6029 154.816 52.0781C152.863 47.5208 151.887 42.4102 151.887 36.7461C151.887 30.9844 152.847 25.8411 154.768 21.3164C156.721 16.7591 159.406 12.918 162.824 9.79297C166.275 6.63542 170.36 4.22656 175.08 2.56641C179.8 0.873698 184.943 0.0273438 190.51 0.0273438C196.076 0.0273438 201.219 0.873698 205.939 2.56641C210.66 4.22656 214.729 6.63542 218.146 9.79297C221.597 12.918 224.283 16.7591 226.203 21.3164C228.156 25.8411 229.133 30.9844 229.133 36.7461ZM209.406 36.7461C209.406 34.5977 209.309 32.4004 209.113 30.1543C208.918 27.9082 208.56 25.7272 208.039 23.6113C207.518 21.4954 206.802 19.5098 205.891 17.6543C205.012 15.7988 203.872 14.1875 202.473 12.8203C201.073 11.4206 199.38 10.3301 197.395 9.54883C195.441 8.73503 193.146 8.32812 190.51 8.32812C187.84 8.32812 185.513 8.73503 183.527 9.54883C181.542 10.3301 179.849 11.4043 178.449 12.7715C177.049 14.1387 175.91 15.75 175.031 17.6055C174.152 19.4609 173.452 21.4466 172.932 23.5625C172.443 25.6458 172.102 27.8268 171.906 30.1055C171.711 32.3516 171.613 34.5651 171.613 36.7461C171.613 38.8945 171.711 41.0918 171.906 43.3379C172.102 45.584 172.46 47.765 172.98 49.8809C173.501 51.9642 174.201 53.9336 175.08 55.7891C175.992 57.6445 177.147 59.2721 178.547 60.6719C179.947 62.0391 181.623 63.1296 183.576 63.9434C185.562 64.7572 187.873 65.1641 190.51 65.1641C193.081 65.1641 195.327 64.7572 197.248 63.9434C199.169 63.097 200.829 61.974 202.229 60.5742C203.628 59.1419 204.784 57.498 205.695 55.6426C206.639 53.7546 207.372 51.7689 207.893 49.6855C208.446 47.5697 208.837 45.4049 209.064 43.1914C209.292 40.9779 209.406 38.8294 209.406 36.7461Z" fill="#386762"/>
<path d="M273.713 72H254.328V10.6719H235.188V1.6875H292.854V10.6719H273.713V72Z" fill="#314564"/>
<path d="M369.758 38.3574V39.2852C369.693 42.0195 369.4 44.8516 368.879 47.7812C368.391 50.7109 367.691 53.6406 366.779 56.5703C365.868 59.5 364.777 62.3971 363.508 65.2617C362.238 68.1263 360.806 70.8607 359.211 73.4648C357.648 76.1016 355.956 78.5592 354.133 80.8379C352.31 83.1491 350.389 85.1836 348.371 86.9414L341.096 82.7422C342.235 80.8216 343.26 78.722 344.172 76.4434C345.116 74.1973 345.962 71.8372 346.711 69.3633C347.46 66.8893 348.094 64.3503 348.615 61.7461C349.169 59.1419 349.624 56.554 349.982 53.9824C350.34 51.4108 350.601 48.888 350.764 46.4141C350.959 43.9076 351.057 41.5312 351.057 39.2852C351.057 37.5273 351.04 35.5417 351.008 33.3281C351.008 31.082 350.878 28.8034 350.617 26.4922C350.389 24.181 349.999 21.9349 349.445 19.7539C348.892 17.5404 348.062 15.571 346.955 13.8457C345.881 12.1204 344.481 10.737 342.756 9.69531C341.063 8.65365 338.947 8.13281 336.408 8.13281C334.162 8.13281 332.225 8.52344 330.598 9.30469C329.003 10.0534 327.635 11.0788 326.496 12.3809C325.389 13.6504 324.494 15.1315 323.811 16.8242C323.16 18.5169 322.639 20.3073 322.248 22.1953C321.89 24.0508 321.646 25.9388 321.516 27.8594C321.418 29.7474 321.369 31.5378 321.369 33.2305V46.8535H342.414V54.9102H321.369V72H301.984V36.2578C301.984 31.1471 302.798 26.3945 304.426 22C306.053 17.6055 308.348 13.7969 311.311 10.5742C314.305 7.31901 317.886 4.77995 322.053 2.95703C326.252 1.10156 330.923 0.173828 336.066 0.173828C339.549 0.173828 342.805 0.678385 345.832 1.6875C348.892 2.66406 351.675 4.03125 354.182 5.78906C356.688 7.51432 358.918 9.58138 360.871 11.9902C362.857 14.3665 364.501 16.9707 365.803 19.8027C367.137 22.6348 368.146 25.6296 368.83 28.7871C369.514 31.9447 369.823 35.1348 369.758 38.3574Z" fill="#C8B181"/>
<path d="M401.789 72H382.404V1.6875H416.975C420.23 1.6875 423.371 2.07812 426.398 2.85938C429.426 3.60807 432.095 4.8125 434.406 6.47266C436.75 8.10026 438.605 10.2161 439.973 12.8203C441.372 15.4245 442.072 18.582 442.072 22.293C442.072 25.1901 441.454 27.9245 440.217 30.4961C439.012 33.0352 437.385 35.3138 435.334 37.332C433.316 39.3177 430.988 40.9779 428.352 42.3125C425.715 43.6146 422.98 44.4772 420.148 44.9004C421.418 47.0488 422.736 49.0833 424.104 51.0039C425.503 52.9245 426.903 54.7311 428.303 56.4238C429.735 58.084 431.151 59.6302 432.551 61.0625C433.951 62.4622 435.285 63.748 436.555 64.9199C439.549 67.6543 442.512 70.0143 445.441 72H421.271C419.318 70.1445 417.463 67.9147 415.705 65.3105C414.208 63.097 412.694 60.3626 411.164 57.1074C409.667 53.8197 408.511 50.0273 407.697 45.7305H401.789V72ZM422.395 22.293C422.395 17.5729 421.239 14.1061 418.928 11.8926C416.649 9.67904 413.215 8.57227 408.625 8.57227H401.789V39.0898H408.625C411.066 39.0898 413.15 38.6341 414.875 37.7227C416.633 36.7786 418.065 35.5417 419.172 34.0117C420.279 32.4492 421.092 30.6589 421.613 28.6406C422.134 26.6224 422.395 24.5065 422.395 22.293Z" fill="#A19DA2"/>
</svg>
